<svg width="465" height="67" viewBox="0 0 465 67" fill="none" xmlns="http://www.w3.org/2000/svg">
<path d="M257.862 31.3691H242.833C242.005 31.3691 241.333 32.0407 241.333 32.8691V39.1123H255.507V43.9131H241.333V50.0664C241.333 50.8948 242.005 51.5664 242.833 51.5664H257.862V57H242.174C238.308 57 235.174 53.866 235.174 50V32.9346C235.174 29.0686 238.308 25.9346 242.174 25.9346H257.862V31.3691ZM277.864 49.6191L285.472 25.9346H293.94V57H288.144V33.9053L280.717 56.8193H274.921L267.992 35.2637V57H262.195V25.9346H270.256L277.864 49.6191ZM310.595 25.9346C316.663 25.9346 320.966 28.8784 320.966 34.1768C321.011 37.3013 318.973 39.5654 315.803 40.7881C319.788 42.1014 322.324 44.6377 322.324 48.1699C322.369 53.8304 317.886 56.9999 311.501 57H298.277V25.9346H310.595ZM348.653 31.3691H333.624C332.796 31.3691 332.124 32.0407 332.124 32.8691V39.1123H346.298V43.9131H332.124V50.0664C332.124 50.8948 332.796 51.5664 333.624 51.5664H348.653V57H332.965C329.099 57 325.965 53.866 325.965 50V32.9346C325.965 29.0686 329.099 25.9346 332.965 25.9346H348.653V31.3691ZM363.689 25.9346C372.882 25.9346 378.361 31.0975 378.361 41.4678C378.407 51.8379 372.927 56.9999 363.689 57H352.277V25.9346H363.689ZM393.414 25.9346C402.607 25.9346 408.086 31.0975 408.086 41.4678C408.131 51.8379 402.652 56.9999 393.414 57H382.002V25.9346H393.414ZM434.413 31.3691H419.384C418.555 31.3691 417.884 32.0407 417.884 32.8691V39.1123H432.058V43.9131H417.884V50.0664C417.884 50.8948 418.555 51.5664 419.384 51.5664H434.413V57H418.725C414.859 57 411.725 53.866 411.725 50V32.9346C411.725 29.0686 414.859 25.9346 418.725 25.9346H434.413V31.3691ZM449.451 25.9346C458.644 25.9346 464.123 31.0975 464.123 41.4678C464.168 51.8379 458.689 56.9999 449.451 57H438.039V25.9346H449.451ZM304.437 51.7471H309.418C314.173 51.747 316.256 50.8866 316.256 47.8525C316.256 44.7281 314.173 43.6866 309.418 43.6865H304.437V51.7471ZM358.437 51.7471H361.742C368.988 51.747 372.203 50.1168 372.203 41.5127C372.203 33.0897 368.988 31.1875 361.742 31.1875H358.437V51.7471ZM388.161 51.7471H391.467C398.712 51.747 401.928 50.1168 401.928 41.5127C401.928 33.0897 398.712 31.1875 391.467 31.1875H388.161V51.7471ZM444.198 51.7471H447.504C454.749 51.747 457.965 50.1168 457.965 41.5127C457.965 33.0897 454.749 31.1875 447.504 31.1875H444.198V51.7471ZM304.437 38.75H308.512C312.95 38.75 314.897 37.6182 314.897 34.6748C314.897 31.9124 312.95 31.1426 308.512 31.1426H304.437V38.75Z" fill="black" fill-opacity="0.5"/>
<path d="M0 33.5C0 21.7739 0 15.9109 2.3001 11.4321C4.32333 7.49243 7.5517 4.2894 11.5225 2.28205C16.0367 0 21.9461 0 33.765 0C45.5838 0 51.4933 0 56.0075 2.28205C59.9783 4.2894 63.2066 7.49243 65.2299 11.4321C67.53 15.9109 67.53 21.7739 67.53 33.5C67.53 45.2261 67.53 51.0891 65.2299 55.5679C63.2066 59.5076 59.9783 62.7106 56.0075 64.7179C51.4933 67 45.5838 67 33.765 67C21.9461 67 16.0367 67 11.5225 64.7179C7.5517 62.7106 4.32333 59.5076 2.3001 55.5679C0 51.0891 0 45.2261 0 33.5Z" fill="#9267FF"/>
<path d="M35.1722 21.3752C35.5554 25.2916 35.7469 27.25 36.7734 28.686C37.2132 29.3013 37.7557 29.8364 38.377 30.2678C39.8268 31.2746 41.7875 31.4395 45.7087 31.7692L47.3666 31.9085V34.7478L45.7087 34.887C41.7875 35.2167 39.8268 35.3817 38.377 36.3884C37.7557 36.8198 37.2132 37.355 36.7734 37.9703C35.7469 39.4063 35.5554 41.3646 35.1722 45.2811H32.3578C31.9746 41.3646 31.7831 39.4063 30.7566 37.9703C30.3168 37.355 29.7743 36.8198 29.153 36.3884C27.7032 35.3817 25.7425 35.2167 21.8213 34.887L20.1634 34.7478V31.9085L21.8213 31.7692C25.7425 31.4395 27.7032 31.2746 29.153 30.2678C29.7743 29.8364 30.3168 29.3013 30.7566 28.686C31.7831 27.25 31.9746 25.2916 32.3578 21.3752H35.1722Z" fill="white"/>
<path fill-rule="evenodd" clip-rule="evenodd" d="M33.765 6.94922C55.488 6.94922 60.1439 11.6051 60.1439 33.3281C60.1439 55.0511 55.488 59.707 33.765 59.707C12.042 59.707 7.38611 55.0511 7.38611 33.3281C7.38611 11.6051 12.042 6.94922 33.765 6.94922ZM51.0053 16.0657C44.6166 9.67706 31.714 12.2216 22.1864 21.7491C12.6588 31.2768 10.1142 44.1797 16.503 50.5684C22.8917 56.9571 35.7943 54.4126 45.3219 44.885C54.8495 35.3573 57.394 22.4544 51.0053 16.0657Z" fill="white"/>
<path fill-rule="evenodd" clip-rule="evenodd" d="M169.517 24.353C178.688 24.353 184.862 30.8126 184.862 40.7414C184.862 50.6702 178.688 57.1298 169.517 57.1298C165.321 57.1298 162.459 55.2758 160.601 52.4049V66.1016H152.733V25.4258H160.601V29.377C162.519 26.207 165.501 24.353 169.517 24.353ZM168.857 30.334C163.343 30.3341 159.926 33.923 159.926 40.7414C159.926 47.6795 163.942 51.328 168.857 51.3281C173.952 51.3281 177.07 47.6796 177.07 40.7414C177.07 33.9229 173.952 30.334 168.857 30.334Z" fill="black"/>
<path fill-rule="evenodd" clip-rule="evenodd" d="M134.529 24.353C144.077 24.3531 149.394 30.399 149.454 40.8145V43.3886H126.674C127.278 48.5364 129.756 50.8108 134.831 50.8108C138.699 50.8108 140.572 49.4341 141.599 46.2017L149.213 48.177C146.796 54.4623 142.505 57.1562 134.831 57.1562C124.74 57.1562 118.637 50.691 118.637 40.7543C118.637 30.8177 124.801 24.353 134.529 24.353ZM134.348 30.4588C129.393 30.4589 127.097 33.0925 126.613 38.1206H141.599C141.176 33.3319 139.182 30.4588 134.348 30.4588Z" fill="black"/>
<path d="M219.901 32.3701H213.453C210.231 32.3701 207.837 33.9176 207.837 38.1633V56.3218H200.886V35.6847C200.886 30.0189 205.466 25.4259 211.116 25.4258H219.908L219.901 32.3701Z" fill="black"/>
<path d="M91.7484 30.5482L110.576 10.3363H121.064L99.8828 33.1066L121.259 56.261H110.576L91.7484 35.9209V56.261H83.8849V10.3363H91.7484V30.5482Z" fill="black"/>
<path d="M196.512 56.261H188.643V10.469H196.512V56.261Z" fill="black"/>
</svg>
